<svg id="svg" version="1.1" width="400" height="140.20100502512562" viewBox="0 0 400 140.20100502512562" xmlns="http://www.w3.org/2000/svg" xmlns:xlink="http://www.w3.org/1999/xlink" ><g id="svgg"><path id="path0" d="M120.333 46.754 C 109.320 47.999,102.543 54.662,103.037 63.759 C 103.237 67.432,104.781 68.931,108.874 69.423 L 109.831 69.538 109.488 68.762 C 107.770 64.879,109.447 55.871,112.341 53.436 C 113.596 52.380,117.333 51.172,117.333 51.822 C 117.333 51.993,114.848 63.623,113.752 68.583 C 113.529 69.592,112.663 73.604,111.828 77.500 C 110.993 81.396,110.162 85.258,109.981 86.083 C 109.800 86.908,109.584 87.921,109.500 88.333 C 109.416 88.746,109.193 89.796,109.003 90.667 C 108.458 93.164,108.167 94.573,108.167 94.708 C 108.167 94.777,110.221 94.833,112.732 94.833 L 117.297 94.833 117.389 94.458 C 117.439 94.252,118.353 90.033,119.420 85.083 C 120.487 80.133,121.508 75.408,121.688 74.583 C 121.868 73.758,122.093 72.680,122.187 72.186 C 122.281 71.693,122.426 71.112,122.508 70.895 L 122.658 70.500 127.323 70.500 L 131.987 70.500 132.138 69.875 C 132.264 69.351,132.535 68.092,132.928 66.208 L 133.006 65.833 128.337 65.833 C 124.543 65.833,123.667 65.791,123.667 65.610 C 123.667 65.487,123.823 64.643,124.015 63.735 C 124.207 62.827,124.617 60.883,124.926 59.417 C 125.236 57.950,125.660 55.906,125.870 54.875 C 126.307 52.720,126.085 52.854,128.428 53.336 C 136.694 55.036,139.398 53.883,141.055 47.947 C 141.412 46.669,141.430 46.492,141.191 46.585 C 139.172 47.379,134.579 47.404,127.833 46.658 C 125.933 46.447,122.677 46.489,120.333 46.754 M212.417 46.734 C 201.465 48.320,192.792 55.724,192.777 63.500 C 192.770 67.163,194.251 68.820,197.992 69.332 C 199.640 69.558,199.597 69.587,199.127 68.567 C 198.197 66.552,198.768 60.774,200.172 57.987 C 204.639 49.122,219.041 46.104,222.677 53.271 C 225.275 58.392,220.122 66.797,214.364 66.829 C 213.756 66.833,213.657 66.788,213.729 66.542 C 213.776 66.381,214.122 64.750,214.497 62.917 C 214.873 61.083,215.503 58.028,215.898 56.128 C 216.293 54.227,216.591 52.647,216.559 52.615 C 216.528 52.583,215.845 52.654,215.043 52.771 C 212.730 53.109,211.394 53.299,209.250 53.595 C 206.879 53.922,207.236 53.691,206.940 55.087 C 206.804 55.727,205.006 64.125,202.944 73.750 C 198.783 93.176,198.500 94.511,198.500 94.701 C 198.500 94.774,200.559 94.833,203.076 94.833 L 207.652 94.833 207.755 94.292 C 207.812 93.994,209.000 88.425,210.396 81.917 L 212.934 70.083 214.425 70.000 C 220.305 69.672,222.684 72.775,222.020 79.906 C 221.217 88.518,216.951 92.238,212.259 88.417 L 211.345 87.672 210.995 88.794 C 209.488 93.617,212.541 96.552,218.333 95.850 C 224.576 95.093,228.684 90.414,230.539 81.949 C 232.143 74.628,229.300 68.052,224.178 67.232 C 223.322 67.096,223.327 66.967,224.208 66.446 C 227.459 64.521,229.837 60.423,229.831 56.753 C 229.821 49.657,222.263 45.308,212.417 46.734 M147.333 62.185 C 140.002 62.726,134.371 68.811,132.002 78.750 C 129.944 87.388,131.772 92.794,137.333 94.514 C 146.772 97.434,155.421 89.540,156.755 76.790 C 156.856 75.826,156.924 75.652,157.228 75.583 C 157.423 75.539,157.958 75.423,158.417 75.326 C 158.875 75.230,159.727 75.004,160.309 74.825 C 161.594 74.431,161.563 74.432,161.421 74.792 C 159.952 78.530,159.185 85.291,159.896 88.233 C 160.881 92.313,163.717 94.588,168.312 94.985 C 177.290 95.763,183.961 88.242,185.085 76.076 C 185.192 74.921,185.205 74.894,185.889 74.459 C 187.610 73.364,189.086 71.458,191.053 67.792 L 191.835 66.333 190.850 66.333 C 189.867 66.333,189.863 66.335,189.369 67.082 C 188.057 69.062,186.837 70.249,185.726 70.626 L 185.201 70.804 185.091 69.860 C 184.468 64.527,181.825 62.119,176.623 62.147 C 171.109 62.177,166.898 64.850,163.404 70.537 C 162.717 71.655,160.326 72.495,157.817 72.499 L 157.050 72.500 156.952 70.774 C 156.594 64.451,153.543 61.727,147.333 62.185 M246.476 62.585 C 237.933 64.287,230.624 78.227,232.899 88.482 C 234.699 96.596,244.316 97.612,249.955 90.283 L 250.716 89.295 251.013 90.465 C 252.401 95.931,258.646 96.853,264.478 92.451 C 265.728 91.508,265.718 91.506,265.426 92.674 C 265.301 93.174,265.151 93.865,265.092 94.208 L 264.985 94.833 269.562 94.833 L 274.139 94.833 274.310 94.042 C 274.403 93.606,274.862 91.450,275.329 89.250 C 275.796 87.050,276.625 83.150,277.170 80.583 C 277.715 78.017,278.235 75.542,278.324 75.083 C 278.413 74.625,278.670 73.387,278.895 72.333 L 279.303 70.417 280.258 69.546 C 281.399 68.504,282.331 68.024,283.478 67.888 C 284.589 67.757,284.730 67.893,285.249 69.595 C 285.915 71.779,286.657 72.313,288.591 71.999 C 294.095 71.103,293.532 62.659,287.969 62.668 C 285.857 62.672,284.221 63.415,281.482 65.615 C 280.876 66.102,280.339 66.500,280.289 66.500 C 280.189 66.500,280.193 66.472,280.584 64.667 C 280.732 63.979,280.889 63.247,280.931 63.039 L 281.008 62.661 276.386 62.706 L 271.764 62.750 269.803 72.000 C 266.983 85.309,266.832 85.830,265.225 87.791 C 262.944 90.576,259.437 89.796,259.462 86.510 C 259.469 85.657,263.343 66.768,264.276 63.042 L 264.369 62.667 259.714 62.667 L 255.058 62.667 254.738 64.352 C 254.431 65.967,254.413 66.008,254.299 65.341 C 253.875 62.855,250.713 61.741,246.476 62.585 M150.837 66.458 C 151.902 67.418,152.134 69.553,151.236 70.134 C 149.513 71.250,149.398 74.854,151.059 75.642 C 152.220 76.193,150.127 83.511,147.936 86.557 C 145.097 90.505,141.589 90.430,140.890 86.407 C 139.371 77.657,146.778 62.802,150.837 66.458 M179.078 66.545 C 180.061 67.528,180.303 69.576,179.491 70.038 C 177.960 70.910,177.865 74.743,179.353 75.622 C 179.646 75.794,179.803 76.005,179.756 76.161 C 179.713 76.302,179.597 76.942,179.498 77.583 C 178.469 84.220,175.320 89.367,172.296 89.355 C 169.931 89.347,169.160 88.103,169.155 84.294 C 169.142 74.220,175.457 62.924,179.078 66.545 M252.120 66.416 C 252.706 66.534,253.317 67.156,253.660 67.983 C 253.885 68.527,251.118 82.288,250.308 84.653 C 249.004 88.459,245.027 90.312,242.956 88.078 C 240.620 85.560,242.908 73.908,246.716 68.920 C 248.074 67.143,250.090 65.978,251.333 66.253 C 251.471 66.284,251.825 66.357,252.120 66.416 " stroke="none" fill="#050505" fill-rule="evenodd"></path><path id="path1" d="M0.000 70.083 L 0.000 140.167 200.000 140.167 L 400.000 140.167 400.000 70.083 L 400.000 0.000 200.000 0.000 L 0.000 0.000 0.000 70.083 M366.418 8.001 C 366.642 8.364,366.338 8.788,365.913 8.707 C 365.323 8.594,365.318 7.833,365.907 7.833 C 366.131 7.833,366.360 7.909,366.418 8.001 M8.167 8.244 C 8.167 8.532,7.566 8.894,7.330 8.748 C 6.936 8.504,7.163 8.000,7.667 8.000 C 7.995 8.000,8.167 8.084,8.167 8.244 M187.407 8.152 C 187.577 8.427,187.318 8.797,186.900 8.877 C 186.471 8.959,186.048 8.493,186.252 8.163 C 186.379 7.958,187.282 7.948,187.407 8.152 M90.833 8.411 C 90.833 8.561,90.736 8.619,90.583 8.560 C 90.446 8.508,90.333 8.397,90.333 8.316 C 90.333 8.234,90.446 8.167,90.583 8.167 C 90.721 8.167,90.833 8.277,90.833 8.411 M328.800 14.958 L 328.849 16.000 198.175 16.000 L 67.500 16.000 67.500 15.028 C 67.500 14.493,67.550 14.006,67.611 13.944 C 67.672 13.883,126.454 13.852,198.236 13.875 L 328.750 13.917 328.800 14.958 M352.236 21.768 C 352.625 21.917,352.582 22.773,352.181 22.878 C 351.786 22.981,351.500 22.715,351.500 22.244 C 351.500 21.699,351.707 21.565,352.236 21.768 M383.875 23.328 L 387.333 23.333 387.333 24.333 L 387.333 25.333 197.833 25.333 L 8.333 25.333 8.333 24.335 L 8.333 23.337 14.625 23.294 C 19.226 23.262,359.715 23.294,383.875 23.328 M130.167 46.764 C 133.465 47.149,138.341 47.115,140.167 46.693 C 140.946 46.513,141.591 46.378,141.600 46.391 C 141.861 46.795,140.216 50.864,139.346 51.964 C 137.429 54.390,132.798 54.846,127.034 53.178 C 126.418 53.000,126.298 53.159,126.079 54.441 C 126.018 54.794,125.829 55.721,125.658 56.500 C 124.702 60.856,123.833 65.069,123.833 65.347 C 123.833 65.654,124.014 65.667,128.518 65.667 C 132.195 65.667,133.186 65.711,133.125 65.875 C 133.083 65.990,132.838 67.115,132.580 68.375 L 132.112 70.667 127.396 70.667 L 122.680 70.667 122.529 71.292 C 122.446 71.635,122.258 72.479,122.110 73.167 C 121.493 76.032,120.310 81.496,120.080 82.542 C 119.945 83.160,119.721 84.192,119.583 84.833 C 119.446 85.475,119.225 86.506,119.092 87.125 C 118.959 87.744,118.730 88.850,118.583 89.583 C 118.436 90.317,118.236 91.254,118.138 91.667 C 118.041 92.079,117.838 92.979,117.688 93.667 L 117.416 94.917 112.708 94.961 C 110.119 94.985,108.000 94.985,108.000 94.961 C 108.000 94.898,108.428 92.871,108.836 91.000 C 109.026 90.129,109.250 89.079,109.333 88.667 C 109.417 88.254,109.643 87.204,109.836 86.333 C 110.028 85.462,110.249 84.412,110.326 84.000 C 110.403 83.587,110.628 82.537,110.825 81.667 C 111.023 80.796,111.260 79.639,111.351 79.096 C 111.442 78.552,111.551 78.052,111.594 77.983 C 111.636 77.915,111.741 77.497,111.828 77.055 C 111.914 76.612,112.141 75.537,112.330 74.667 C 112.520 73.796,112.780 72.596,112.908 72.000 C 113.825 67.724,116.251 56.475,116.519 55.250 C 116.927 53.390,117.167 52.172,117.167 51.958 C 117.167 51.752,115.868 51.927,114.750 52.284 C 110.841 53.531,109.131 57.203,109.098 64.417 C 109.084 67.366,109.109 67.639,109.458 68.396 C 110.071 69.724,110.072 69.723,107.501 69.315 C 103.757 68.720,102.323 65.971,103.076 60.833 C 104.626 50.256,114.802 44.971,130.167 46.764 M220.833 46.849 C 231.028 49.203,233.275 60.175,224.790 66.170 L 223.663 66.966 224.461 67.157 C 229.660 68.404,232.221 74.585,230.611 82.000 C 228.632 91.122,223.911 95.989,216.999 96.033 C 211.926 96.065,209.647 93.543,210.769 89.138 C 211.221 87.360,211.181 87.377,212.461 88.411 C 217.237 92.265,222.000 87.216,222.000 78.298 C 222.000 73.309,220.419 70.704,217.060 70.161 C 215.970 69.984,213.000 70.085,213.000 70.298 C 213.000 70.351,212.057 74.786,210.904 80.155 C 209.750 85.524,208.587 90.967,208.318 92.250 C 208.049 93.533,207.795 94.677,207.753 94.792 C 207.678 94.998,198.333 95.122,198.333 94.917 C 198.333 94.872,198.637 93.390,199.007 91.626 C 199.672 88.458,199.886 87.452,200.417 85.000 C 200.761 83.409,201.124 81.713,201.417 80.333 C 201.709 78.954,202.072 77.258,202.417 75.667 C 202.565 74.979,202.795 73.910,202.927 73.292 C 203.059 72.673,203.279 71.642,203.417 71.000 C 203.554 70.358,203.774 69.327,203.906 68.708 C 204.038 68.090,204.307 66.833,204.503 65.917 C 204.951 63.833,205.190 62.711,205.834 59.667 C 206.540 56.336,206.860 54.837,206.992 54.252 L 207.103 53.754 210.843 53.228 C 216.559 52.423,216.667 52.415,216.665 52.778 C 216.665 52.946,216.474 53.983,216.242 55.083 C 216.010 56.183,215.752 57.421,215.668 57.833 C 215.584 58.246,215.356 59.296,215.163 60.167 C 214.969 61.038,214.748 62.125,214.672 62.583 C 214.510 63.558,214.075 65.517,213.848 66.292 C 213.660 66.934,213.635 66.929,215.409 66.590 C 219.955 65.720,223.920 59.935,223.189 55.239 C 221.844 46.602,206.013 48.004,200.691 57.232 C 198.975 60.208,198.215 66.410,199.286 68.708 L 199.655 69.500 198.858 69.500 C 193.958 69.500,191.657 66.101,192.981 60.816 C 195.321 51.476,209.683 44.274,220.833 46.849 M151.311 62.242 C 154.874 63.190,156.757 65.946,157.091 70.698 C 157.167 71.774,157.276 72.340,157.420 72.395 C 157.967 72.605,162.036 71.703,162.770 71.209 C 162.872 71.140,163.205 70.671,163.510 70.167 C 167.283 63.919,173.747 60.737,179.578 62.255 C 182.695 63.067,185.167 66.358,185.167 69.695 C 185.167 71.300,187.035 70.200,188.950 67.467 L 189.861 66.167 190.933 66.167 L 192.004 66.167 191.399 67.375 C 189.683 70.798,187.585 73.588,186.022 74.528 C 185.689 74.728,185.388 74.913,185.353 74.940 C 185.318 74.967,185.227 75.648,185.151 76.453 C 184.107 87.583,177.891 95.153,169.785 95.164 C 164.224 95.172,160.708 92.672,159.751 88.031 C 159.101 84.878,159.820 78.703,161.280 74.898 C 161.351 74.714,161.219 74.719,160.558 74.924 C 160.114 75.062,159.188 75.293,158.500 75.438 C 156.937 75.765,157.066 75.600,156.757 77.667 C 155.139 88.461,149.255 95.152,141.366 95.164 C 135.192 95.173,131.650 92.177,131.198 86.565 C 130.384 76.450,136.502 64.962,143.904 62.707 C 146.302 61.976,149.548 61.773,151.311 62.242 M250.798 62.325 C 252.712 62.602,253.760 63.353,254.260 64.808 L 254.464 65.403 254.669 64.138 C 254.781 63.442,254.925 62.788,254.990 62.684 C 255.073 62.548,256.431 62.507,259.769 62.539 L 264.432 62.583 264.137 64.000 C 263.975 64.779,263.769 65.792,263.679 66.250 C 263.520 67.061,263.381 67.713,262.664 71.000 C 262.474 71.871,262.250 72.921,262.167 73.333 C 262.083 73.746,261.858 74.796,261.667 75.667 C 261.476 76.537,261.204 77.813,261.063 78.500 C 260.921 79.188,260.709 80.200,260.590 80.750 C 259.174 87.337,259.211 88.415,260.870 89.078 C 263.904 90.292,266.503 87.301,267.743 81.167 C 268.169 79.057,268.424 77.846,269.242 74.042 C 269.375 73.423,269.603 72.354,269.749 71.667 C 271.326 64.243,271.667 62.628,271.667 62.569 C 271.667 62.531,273.767 62.500,276.333 62.500 L 281.000 62.500 281.000 62.934 C 281.000 63.173,280.896 63.792,280.768 64.309 C 280.217 66.542,280.118 66.493,282.112 64.978 C 287.485 60.895,292.417 62.022,292.417 67.333 C 292.417 70.366,290.963 71.973,288.077 72.131 C 286.254 72.231,285.855 71.914,285.226 69.861 C 284.639 67.949,284.632 67.942,283.463 68.048 C 281.549 68.221,279.536 69.858,279.190 71.522 C 278.789 73.447,277.989 77.231,277.749 78.333 C 277.620 78.929,277.021 81.779,276.418 84.667 C 275.814 87.554,275.219 90.367,275.094 90.917 C 274.970 91.467,274.732 92.610,274.565 93.458 L 274.262 95.000 269.548 95.000 C 266.955 95.000,264.834 94.944,264.836 94.875 C 264.838 94.768,265.030 93.895,265.427 92.180 C 265.516 91.795,265.488 91.803,264.802 92.358 C 259.060 97.007,252.436 96.170,250.900 90.601 L 250.629 89.619 250.206 90.184 C 246.115 95.650,239.729 96.974,235.387 93.258 C 229.333 88.076,233.334 70.175,241.838 64.393 C 244.390 62.659,247.747 61.884,250.798 62.325 M311.179 63.450 C 311.416 64.071,311.372 64.167,310.851 64.167 C 310.364 64.167,310.167 63.926,310.167 63.334 C 310.167 62.709,310.931 62.798,311.179 63.450 M35.833 63.927 C 35.833 64.206,35.683 64.227,35.333 63.997 C 35.116 63.855,35.115 63.813,35.325 63.678 C 35.616 63.491,35.833 63.597,35.833 63.927 M148.618 66.183 C 143.047 67.490,137.976 87.271,142.754 89.052 C 146.113 90.303,150.231 84.592,151.247 77.270 C 151.309 76.823,151.399 76.356,151.447 76.231 C 151.499 76.096,151.368 75.942,151.122 75.848 C 149.314 75.161,149.317 71.228,151.127 70.083 C 151.754 69.686,151.833 68.971,151.399 67.598 C 150.995 66.319,150.061 65.844,148.618 66.183 M176.917 66.156 C 171.703 67.421,166.376 86.780,170.667 88.867 C 174.173 90.572,177.573 86.375,179.248 78.278 C 179.759 75.806,179.760 75.929,179.240 75.693 C 177.706 74.994,177.895 70.692,179.498 69.835 C 179.742 69.704,179.833 69.486,179.832 69.036 C 179.829 66.960,178.601 65.748,176.917 66.156 M249.899 66.560 C 245.954 67.849,242.289 76.137,242.260 83.833 C 242.248 87.079,242.469 87.807,243.672 88.483 C 246.357 89.992,249.816 87.282,250.669 83.000 C 250.751 82.587,250.975 81.537,251.167 80.667 C 251.358 79.796,251.583 78.746,251.667 78.333 C 251.750 77.921,251.975 76.871,252.166 76.000 C 252.357 75.129,252.620 73.892,252.751 73.250 C 252.882 72.608,253.140 71.371,253.325 70.500 C 253.744 68.531,253.746 68.215,253.341 67.551 C 252.706 66.509,251.297 66.104,249.899 66.560 M297.134 76.941 C 297.430 77.020,297.506 77.143,297.467 77.480 C 297.394 78.113,296.728 78.182,296.499 77.581 C 296.243 76.908,296.405 76.745,297.134 76.941 M22.056 77.362 C 22.185 77.856,22.082 77.969,21.587 77.875 C 21.122 77.786,21.061 77.606,21.375 77.249 C 21.679 76.904,21.948 76.949,22.056 77.362 M104.774 90.752 C 104.907 91.100,104.537 91.500,104.081 91.500 C 103.766 91.500,103.500 91.225,103.500 90.898 C 103.500 90.800,104.187 90.524,104.464 90.511 C 104.581 90.505,104.721 90.613,104.774 90.752 M283.792 90.692 C 284.061 90.961,283.747 91.500,283.322 91.500 C 283.001 91.500,282.623 90.891,282.779 90.625 C 282.893 90.432,283.577 90.477,283.792 90.692 M8.333 91.427 C 8.333 91.702,8.070 91.748,7.917 91.500 C 7.781 91.280,7.980 90.968,8.178 91.090 C 8.264 91.143,8.333 91.294,8.333 91.427 M91.000 104.661 C 91.000 104.972,90.559 105.333,90.178 105.333 C 89.926 105.333,89.956 104.836,90.208 104.820 C 90.374 104.810,90.374 104.790,90.207 104.723 C 89.883 104.592,90.139 104.333,90.593 104.333 C 90.886 104.333,91.000 104.425,91.000 104.661 M388.833 110.000 L 388.833 111.000 369.708 111.001 C 348.086 111.001,97.874 111.001,44.625 111.001 L 9.833 111.000 9.833 110.000 L 9.833 109.000 199.333 109.000 L 388.833 109.000 388.833 110.000 M328.917 118.750 L 328.917 119.750 198.292 119.792 L 67.667 119.834 67.667 118.750 L 67.667 117.666 198.292 117.708 L 328.917 117.750 328.917 118.750 " stroke="none" fill="#fbfbfb" fill-rule="evenodd"></path><path id="path2" d="M67.667 14.917 L 67.667 15.833 198.167 15.833 L 328.667 15.833 328.667 14.917 L 328.667 14.000 198.167 14.000 L 67.667 14.000 67.667 14.917 M8.500 24.335 L 8.500 25.333 197.833 25.333 L 387.167 25.333 387.167 24.336 L 387.167 23.338 197.833 23.337 L 8.500 23.336 8.500 24.335 M10.000 110.001 L 10.000 110.996 199.333 110.995 L 388.667 110.993 388.667 110.002 L 388.667 109.011 199.333 109.009 L 10.000 109.006 10.000 110.001 M67.833 118.750 L 67.833 119.667 198.333 119.667 L 328.833 119.667 328.833 118.750 L 328.833 117.833 198.333 117.833 L 67.833 117.833 67.833 118.750 " stroke="none" fill="#bc8609" fill-rule="evenodd"></path><path id="path3" d="M81.628 23.454 C 81.928 23.491,82.378 23.490,82.628 23.452 C 82.878 23.414,82.633 23.384,82.083 23.385 C 81.533 23.386,81.328 23.417,81.628 23.454 M171.625 23.454 C 171.923 23.491,172.410 23.491,172.708 23.454 C 173.006 23.417,172.762 23.387,172.167 23.387 C 171.571 23.387,171.327 23.417,171.625 23.454 M261.792 23.454 C 262.090 23.491,262.577 23.491,262.875 23.454 C 263.173 23.417,262.929 23.387,262.333 23.387 C 261.737 23.387,261.494 23.417,261.792 23.454 M351.958 23.454 C 352.256 23.491,352.744 23.491,353.042 23.454 C 353.340 23.417,353.096 23.387,352.500 23.387 C 351.904 23.387,351.660 23.417,351.958 23.454 M135.295 47.287 C 135.594 47.325,136.044 47.324,136.295 47.286 C 136.545 47.248,136.300 47.217,135.750 47.218 C 135.200 47.219,134.995 47.250,135.295 47.287 M214.463 49.456 C 214.855 49.491,215.455 49.490,215.796 49.454 C 216.137 49.419,215.817 49.390,215.083 49.390 C 214.350 49.391,214.071 49.420,214.463 49.456 M147.375 62.119 C 147.627 62.158,148.040 62.158,148.292 62.119 C 148.544 62.081,148.337 62.050,147.833 62.050 C 147.329 62.050,147.123 62.081,147.375 62.119 M149.294 62.118 C 149.501 62.158,149.801 62.156,149.960 62.115 C 150.120 62.073,149.950 62.040,149.583 62.042 C 149.217 62.044,149.086 62.078,149.294 62.118 M175.542 62.119 C 175.794 62.158,176.206 62.158,176.458 62.119 C 176.710 62.081,176.504 62.050,176.000 62.050 C 175.496 62.050,175.290 62.081,175.542 62.119 M177.460 62.118 C 177.668 62.158,177.968 62.156,178.127 62.115 C 178.286 62.073,178.117 62.040,177.750 62.042 C 177.383 62.044,177.253 62.078,177.460 62.118 M108.883 64.833 C 108.883 65.337,108.915 65.544,108.953 65.292 C 108.991 65.040,108.991 64.627,108.953 64.375 C 108.915 64.123,108.883 64.329,108.883 64.833 M124.958 70.625 C 126.265 70.653,128.402 70.653,129.708 70.625 C 131.015 70.596,129.946 70.573,127.333 70.573 C 124.721 70.573,123.652 70.596,124.958 70.625 M222.042 77.417 C 222.044 77.783,222.078 77.914,222.118 77.706 C 222.158 77.499,222.156 77.199,222.115 77.040 C 222.073 76.880,222.040 77.050,222.042 77.417 M222.039 78.833 C 222.039 79.154,222.073 79.285,222.115 79.125 C 222.157 78.965,222.157 78.702,222.115 78.542 C 222.073 78.381,222.039 78.512,222.039 78.833 M242.042 83.083 C 242.044 83.450,242.078 83.580,242.118 83.373 C 242.158 83.166,242.156 82.866,242.115 82.706 C 242.073 82.547,242.040 82.717,242.042 83.083 M232.539 83.333 C 232.539 83.654,232.573 83.785,232.615 83.625 C 232.657 83.465,232.657 83.202,232.615 83.042 C 232.573 82.881,232.539 83.012,232.539 83.333 M159.539 83.667 C 159.539 83.987,159.573 84.119,159.615 83.958 C 159.657 83.798,159.657 83.535,159.615 83.375 C 159.573 83.215,159.539 83.346,159.539 83.667 M140.720 84.500 C 140.720 85.096,140.750 85.340,140.787 85.042 C 140.824 84.744,140.824 84.256,140.787 83.958 C 140.750 83.660,140.720 83.904,140.720 84.500 M242.039 84.833 C 242.039 85.154,242.073 85.285,242.115 85.125 C 242.157 84.965,242.157 84.702,242.115 84.542 C 242.073 84.381,242.039 84.512,242.039 84.833 M248.491 87.458 L 247.917 88.083 248.542 87.509 C 249.123 86.974,249.243 86.833,249.116 86.833 C 249.088 86.833,248.807 87.115,248.491 87.458 M211.333 87.552 C 211.333 87.581,211.577 87.825,211.875 88.094 L 212.417 88.583 211.927 88.042 C 211.471 87.537,211.333 87.423,211.333 87.552 M140.127 95.118 C 140.334 95.158,140.634 95.156,140.794 95.115 C 140.953 95.073,140.783 95.040,140.417 95.042 C 140.050 95.044,139.920 95.078,140.127 95.118 M142.042 95.115 C 142.202 95.157,142.465 95.157,142.625 95.115 C 142.785 95.073,142.654 95.039,142.333 95.039 C 142.012 95.039,141.881 95.073,142.042 95.115 M168.458 95.118 C 168.665 95.157,169.002 95.157,169.208 95.118 C 169.415 95.078,169.246 95.045,168.833 95.045 C 168.421 95.045,168.252 95.078,168.458 95.118 M170.460 95.118 C 170.668 95.158,170.968 95.156,171.127 95.115 C 171.286 95.073,171.117 95.040,170.750 95.042 C 170.383 95.044,170.253 95.078,170.460 95.118 M80.128 109.121 C 80.428 109.158,80.878 109.157,81.128 109.119 C 81.378 109.081,81.133 109.051,80.583 109.052 C 80.033 109.053,79.828 109.084,80.128 109.121 M83.121 109.120 C 83.417 109.157,83.942 109.158,84.288 109.122 C 84.634 109.086,84.392 109.055,83.750 109.055 C 83.108 109.054,82.825 109.083,83.121 109.120 M170.295 109.121 C 170.594 109.158,171.044 109.157,171.295 109.119 C 171.545 109.081,171.300 109.051,170.750 109.052 C 170.200 109.053,169.995 109.084,170.295 109.121 M173.458 109.121 C 173.756 109.158,174.244 109.158,174.542 109.121 C 174.840 109.084,174.596 109.053,174.000 109.053 C 173.404 109.053,173.160 109.084,173.458 109.121 M260.375 109.119 C 260.627 109.158,261.040 109.158,261.292 109.119 C 261.544 109.081,261.337 109.050,260.833 109.050 C 260.329 109.050,260.123 109.081,260.375 109.119 M263.542 109.121 C 263.885 109.157,264.448 109.157,264.792 109.121 C 265.135 109.085,264.854 109.056,264.167 109.056 C 263.479 109.056,263.198 109.085,263.542 109.121 M350.542 109.119 C 350.794 109.158,351.206 109.158,351.458 109.119 C 351.710 109.081,351.504 109.050,351.000 109.050 C 350.496 109.050,350.290 109.081,350.542 109.119 M353.621 109.120 C 353.917 109.157,354.442 109.158,354.788 109.122 C 355.134 109.086,354.892 109.055,354.250 109.055 C 353.608 109.054,353.325 109.083,353.621 109.120 M79.208 110.953 C 79.460 110.991,79.873 110.991,80.125 110.953 C 80.377 110.915,80.171 110.883,79.667 110.883 C 79.162 110.883,78.956 110.915,79.208 110.953 M81.627 110.951 C 81.834 110.991,82.134 110.990,82.294 110.948 C 82.453 110.906,82.283 110.874,81.917 110.875 C 81.550 110.877,81.420 110.911,81.627 110.951 M169.375 110.953 C 169.627 110.991,170.040 110.991,170.292 110.953 C 170.544 110.915,170.337 110.883,169.833 110.883 C 169.329 110.883,169.123 110.915,169.375 110.953 M171.794 110.951 C 172.001 110.991,172.301 110.990,172.460 110.948 C 172.620 110.906,172.450 110.874,172.083 110.875 C 171.717 110.877,171.586 110.911,171.794 110.951 M259.542 110.953 C 259.794 110.991,260.206 110.991,260.458 110.953 C 260.710 110.915,260.504 110.883,260.000 110.883 C 259.496 110.883,259.290 110.915,259.542 110.953 M261.875 110.948 C 262.035 110.990,262.298 110.990,262.458 110.948 C 262.619 110.906,262.487 110.872,262.167 110.872 C 261.846 110.872,261.715 110.906,261.875 110.948 M349.708 110.953 C 349.960 110.991,350.373 110.991,350.625 110.953 C 350.877 110.915,350.671 110.883,350.167 110.883 C 349.662 110.883,349.456 110.915,349.708 110.953 M352.042 110.948 C 352.202 110.990,352.465 110.990,352.625 110.948 C 352.785 110.906,352.654 110.872,352.333 110.872 C 352.012 110.872,351.881 110.906,352.042 110.948 " stroke="none" fill="#a67c1a" fill-rule="evenodd"></path><path id="path4" d="M365.500 8.231 C 365.500 8.749,366.272 8.956,366.424 8.478 C 366.559 8.050,366.385 7.833,365.907 7.833 C 365.589 7.833,365.500 7.921,365.500 8.231 M7.167 8.323 C 7.167 8.756,7.420 8.888,7.830 8.669 C 8.348 8.391,8.253 8.000,7.667 8.000 C 7.283 8.000,7.167 8.075,7.167 8.323 M186.252 8.163 C 186.048 8.493,186.471 8.959,186.900 8.877 C 187.318 8.797,187.577 8.427,187.407 8.152 C 187.282 7.948,186.379 7.958,186.252 8.163 M90.333 8.316 C 90.333 8.397,90.446 8.508,90.583 8.560 C 90.736 8.619,90.833 8.561,90.833 8.411 C 90.833 8.277,90.721 8.167,90.583 8.167 C 90.446 8.167,90.333 8.234,90.333 8.316 M67.611 13.944 C 67.550 14.006,67.500 14.493,67.500 15.028 L 67.500 16.000 198.175 16.000 L 328.849 16.000 328.800 14.958 L 328.750 13.917 198.236 13.875 C 126.454 13.852,67.672 13.883,67.611 13.944 M328.667 14.917 L 328.667 15.833 198.167 15.833 L 67.667 15.833 67.667 14.917 L 67.667 14.000 198.167 14.000 L 328.667 14.000 328.667 14.917 M351.611 21.778 C 351.437 21.952,351.481 22.581,351.681 22.781 C 352.006 23.106,352.500 22.835,352.500 22.332 C 352.500 21.806,351.935 21.454,351.611 21.778 M21.125 23.284 C 21.331 23.324,21.669 23.324,21.875 23.284 C 22.081 23.245,21.912 23.212,21.500 23.212 C 21.087 23.212,20.919 23.245,21.125 23.284 M34.958 23.284 C 35.165 23.324,35.502 23.324,35.708 23.284 C 35.915 23.245,35.746 23.212,35.333 23.212 C 34.921 23.212,34.752 23.245,34.958 23.284 M48.794 23.285 C 49.001 23.324,49.301 23.323,49.460 23.281 C 49.620 23.239,49.450 23.207,49.083 23.209 C 48.717 23.211,48.586 23.245,48.794 23.285 M62.458 23.284 C 62.665 23.324,63.002 23.324,63.208 23.284 C 63.415 23.245,63.246 23.212,62.833 23.212 C 62.421 23.212,62.252 23.245,62.458 23.284 M76.292 23.284 C 76.498 23.324,76.835 23.324,77.042 23.284 C 77.248 23.245,77.079 23.212,76.667 23.212 C 76.254 23.212,76.085 23.245,76.292 23.284 M81.544 23.286 C 81.797 23.325,82.172 23.324,82.377 23.284 C 82.582 23.244,82.375 23.213,81.917 23.214 C 81.458 23.216,81.291 23.248,81.544 23.286 M89.958 23.284 C 90.165 23.324,90.502 23.324,90.708 23.284 C 90.915 23.245,90.746 23.212,90.333 23.212 C 89.921 23.212,89.752 23.245,89.958 23.284 M103.792 23.284 C 103.998 23.324,104.335 23.324,104.542 23.284 C 104.748 23.245,104.579 23.212,104.167 23.212 C 103.754 23.212,103.585 23.245,103.792 23.284 M117.625 23.284 C 117.831 23.324,118.169 23.324,118.375 23.284 C 118.581 23.245,118.412 23.212,118.000 23.212 C 117.587 23.212,117.419 23.245,117.625 23.284 M131.292 23.284 C 131.498 23.324,131.835 23.324,132.042 23.284 C 132.248 23.245,132.079 23.212,131.667 23.212 C 131.254 23.212,131.085 23.245,131.292 23.284 M145.125 23.284 C 145.331 23.324,145.669 23.324,145.875 23.284 C 146.081 23.245,145.912 23.212,145.500 23.212 C 145.087 23.212,144.919 23.245,145.125 23.284 M158.958 23.284 C 159.165 23.324,159.502 23.324,159.708 23.284 C 159.915 23.245,159.746 23.212,159.333 23.212 C 158.921 23.212,158.752 23.245,158.958 23.284 M171.875 23.288 C 172.219 23.324,172.781 23.324,173.125 23.288 C 173.469 23.252,173.188 23.223,172.500 23.223 C 171.813 23.223,171.531 23.252,171.875 23.288 M186.458 23.284 C 186.665 23.324,187.002 23.324,187.208 23.284 C 187.415 23.245,187.246 23.212,186.833 23.212 C 186.421 23.212,186.252 23.245,186.458 23.284 M200.294 23.285 C 200.501 23.324,200.801 23.323,200.960 23.281 C 201.120 23.239,200.950 23.207,200.583 23.209 C 200.217 23.211,200.086 23.245,200.294 23.285 M213.958 23.284 C 214.165 23.324,214.502 23.324,214.708 23.284 C 214.915 23.245,214.746 23.212,214.333 23.212 C 213.921 23.212,213.752 23.245,213.958 23.284 M227.792 23.284 C 227.998 23.324,228.335 23.324,228.542 23.284 C 228.748 23.245,228.579 23.212,228.167 23.212 C 227.754 23.212,227.585 23.245,227.792 23.284 M241.627 23.285 C 241.834 23.324,242.134 23.323,242.294 23.281 C 242.453 23.239,242.283 23.207,241.917 23.209 C 241.550 23.211,241.420 23.245,241.627 23.285 M255.292 23.284 C 255.498 23.324,255.835 23.324,256.042 23.284 C 256.248 23.245,256.079 23.212,255.667 23.212 C 255.254 23.212,255.085 23.245,255.292 23.284 M261.877 23.286 C 262.131 23.325,262.506 23.324,262.711 23.284 C 262.916 23.244,262.708 23.213,262.250 23.214 C 261.792 23.216,261.624 23.248,261.877 23.286 M269.125 23.284 C 269.331 23.324,269.669 23.324,269.875 23.284 C 270.081 23.245,269.912 23.212,269.500 23.212 C 269.087 23.212,268.919 23.245,269.125 23.284 M282.960 23.285 C 283.168 23.324,283.468 23.323,283.627 23.281 C 283.786 23.239,283.617 23.207,283.250 23.209 C 282.883 23.211,282.753 23.245,282.960 23.285 M296.625 23.284 C 296.831 23.324,297.169 23.324,297.375 23.284 C 297.581 23.245,297.412 23.212,297.000 23.212 C 296.587 23.212,296.419 23.245,296.625 23.284 M310.458 23.284 C 310.665 23.324,311.002 23.324,311.208 23.284 C 311.415 23.245,311.246 23.212,310.833 23.212 C 310.421 23.212,310.252 23.245,310.458 23.284 M324.125 23.284 C 324.331 23.324,324.669 23.324,324.875 23.284 C 325.081 23.245,324.912 23.212,324.500 23.212 C 324.087 23.212,323.919 23.245,324.125 23.284 M337.958 23.284 C 338.165 23.324,338.502 23.324,338.708 23.284 C 338.915 23.245,338.746 23.212,338.333 23.212 C 337.921 23.212,337.752 23.245,337.958 23.284 M351.795 23.287 C 352.094 23.325,352.544 23.324,352.795 23.286 C 353.045 23.248,352.800 23.217,352.250 23.218 C 351.700 23.219,351.495 23.250,351.795 23.287 M365.458 23.284 C 365.665 23.324,366.002 23.324,366.208 23.284 C 366.415 23.245,366.246 23.212,365.833 23.212 C 365.421 23.212,365.252 23.245,365.458 23.284 M379.292 23.284 C 379.498 23.324,379.835 23.324,380.042 23.284 C 380.248 23.245,380.079 23.212,379.667 23.212 C 379.254 23.212,379.085 23.245,379.292 23.284 M8.387 24.333 C 8.387 24.929,8.417 25.173,8.454 24.875 C 8.491 24.577,8.491 24.090,8.454 23.792 C 8.417 23.494,8.387 23.738,8.387 24.333 M387.220 24.333 C 387.220 24.929,387.250 25.173,387.287 24.875 C 387.324 24.577,387.324 24.090,387.287 23.792 C 387.250 23.494,387.220 23.738,387.220 24.333 M123.964 46.456 C 124.448 46.490,125.198 46.490,125.631 46.456 C 126.063 46.421,125.667 46.394,124.750 46.394 C 123.833 46.395,123.480 46.423,123.964 46.456 M215.542 46.455 C 215.885 46.491,216.448 46.491,216.792 46.455 C 217.135 46.419,216.854 46.389,216.167 46.389 C 215.479 46.389,215.198 46.419,215.542 46.455 M120.627 46.618 C 120.834 46.658,121.134 46.656,121.294 46.615 C 121.453 46.573,121.283 46.540,120.917 46.542 C 120.550 46.544,120.420 46.578,120.627 46.618 M133.544 47.120 C 133.797 47.158,134.172 47.157,134.377 47.117 C 134.582 47.078,134.375 47.046,133.917 47.048 C 133.458 47.049,133.291 47.081,133.544 47.120 M136.958 47.118 C 137.165 47.157,137.502 47.157,137.708 47.118 C 137.915 47.078,137.746 47.045,137.333 47.045 C 136.921 47.045,136.752 47.078,136.958 47.118 M213.960 49.618 C 214.168 49.658,214.468 49.656,214.627 49.615 C 214.786 49.573,214.617 49.540,214.250 49.542 C 213.883 49.544,213.753 49.578,213.960 49.618 M107.158 52.292 L 106.583 52.917 107.208 52.342 C 107.790 51.808,107.910 51.667,107.783 51.667 C 107.755 51.667,107.474 51.948,107.158 52.292 M138.740 52.542 L 138.250 53.083 138.792 52.594 C 139.090 52.325,139.333 52.081,139.333 52.052 C 139.333 51.923,139.196 52.037,138.740 52.542 M202.906 54.208 L 202.417 54.750 202.958 54.260 C 203.463 53.804,203.577 53.667,203.448 53.667 C 203.419 53.667,203.175 53.910,202.906 54.208 M196.073 55.042 L 195.583 55.583 196.125 55.094 C 196.630 54.638,196.743 54.500,196.615 54.500 C 196.586 54.500,196.342 54.744,196.073 55.042 M229.888 56.750 C 229.889 57.392,229.919 57.634,229.955 57.288 C 229.991 56.942,229.990 56.417,229.954 56.121 C 229.917 55.825,229.887 56.108,229.888 56.750 M109.042 62.250 C 109.044 62.617,109.078 62.747,109.118 62.540 C 109.158 62.332,109.156 62.032,109.115 61.873 C 109.073 61.714,109.040 61.883,109.042 62.250 M102.890 63.250 C 102.891 63.983,102.920 64.263,102.956 63.871 C 102.991 63.479,102.990 62.879,102.954 62.537 C 102.919 62.196,102.890 62.517,102.890 63.250 M248.625 62.287 C 248.923 62.324,249.410 62.324,249.708 62.287 C 250.006 62.250,249.762 62.220,249.167 62.220 C 248.571 62.220,248.327 62.250,248.625 62.287 M257.385 62.625 C 258.743 62.653,260.918 62.653,262.219 62.625 C 263.519 62.596,262.408 62.573,259.750 62.574 C 257.092 62.574,256.028 62.597,257.385 62.625 M273.958 62.625 C 275.265 62.653,277.402 62.653,278.708 62.625 C 280.015 62.596,278.946 62.573,276.333 62.573 C 273.721 62.573,272.652 62.596,273.958 62.625 M287.628 62.621 C 287.928 62.658,288.378 62.657,288.628 62.619 C 288.878 62.581,288.633 62.551,288.083 62.552 C 287.533 62.553,287.328 62.584,287.628 62.621 M310.375 62.955 C 310.152 63.033,310.103 63.472,310.268 63.903 C 310.376 64.185,311.333 64.282,311.333 64.011 C 311.333 63.365,310.820 62.800,310.375 62.955 M219.744 64.208 L 218.917 65.083 219.792 64.256 C 220.273 63.801,220.667 63.408,220.667 63.381 C 220.667 63.257,220.512 63.395,219.744 64.208 M35.325 63.678 C 35.115 63.813,35.116 63.855,35.333 63.997 C 35.683 64.227,35.833 64.206,35.833 63.927 C 35.833 63.597,35.616 63.491,35.325 63.678 M226.824 64.292 L 226.250 64.917 226.875 64.342 C 227.219 64.026,227.500 63.745,227.500 63.717 C 227.500 63.590,227.359 63.710,226.824 64.292 M198.725 65.167 C 198.725 65.946,198.754 66.265,198.789 65.875 C 198.824 65.485,198.824 64.848,198.789 64.458 C 198.754 64.069,198.725 64.387,198.725 65.167 M123.680 65.537 C 123.668 65.800,124.048 65.827,128.417 65.870 C 131.029 65.896,133.167 65.860,133.167 65.792 C 133.167 65.723,131.073 65.667,128.514 65.667 C 124.948 65.667,123.841 65.618,123.777 65.458 C 123.726 65.332,123.688 65.363,123.680 65.537 M138.245 66.375 L 137.250 67.417 138.292 66.422 C 138.865 65.875,139.333 65.406,139.333 65.380 C 139.333 65.257,139.169 65.407,138.245 66.375 M166.742 66.042 L 166.083 66.750 166.792 66.091 C 167.181 65.729,167.500 65.410,167.500 65.383 C 167.500 65.257,167.355 65.383,166.742 66.042 M239.824 66.125 L 239.250 66.750 239.875 66.176 C 240.219 65.860,240.500 65.578,240.500 65.551 C 240.500 65.423,240.359 65.543,239.824 66.125 M190.288 66.287 C 190.584 66.324,191.109 66.324,191.455 66.288 C 191.800 66.252,191.558 66.222,190.917 66.221 C 190.275 66.221,189.992 66.250,190.288 66.287 M187.324 69.458 L 186.750 70.083 187.375 69.509 C 187.719 69.193,188.000 68.912,188.000 68.884 C 188.000 68.757,187.859 68.877,187.324 69.458 M213.708 70.115 C 213.869 70.157,214.131 70.157,214.292 70.115 C 214.452 70.073,214.321 70.039,214.000 70.039 C 213.679 70.039,213.548 70.073,213.708 70.115 M290.991 70.958 L 290.417 71.583 291.042 71.009 C 291.385 70.693,291.667 70.412,291.667 70.384 C 291.667 70.257,291.526 70.377,290.991 70.958 M157.045 71.333 C 157.045 71.746,157.078 71.915,157.118 71.708 C 157.157 71.502,157.157 71.165,157.118 70.958 C 157.078 70.752,157.045 70.921,157.045 71.333 M150.537 75.422 C 150.786 75.684,151.020 75.865,151.056 75.824 C 151.093 75.784,150.889 75.569,150.603 75.348 L 150.083 74.945 150.537 75.422 M231.048 77.417 C 231.049 77.875,231.081 78.043,231.120 77.789 C 231.158 77.536,231.157 77.161,231.117 76.956 C 231.078 76.751,231.046 76.958,231.048 77.417 M296.425 76.986 C 296.217 77.322,296.657 78.025,297.042 77.970 C 297.591 77.892,297.663 77.082,297.134 76.941 C 296.618 76.802,296.536 76.808,296.425 76.986 M21.375 77.249 C 21.061 77.606,21.122 77.786,21.587 77.875 C 22.082 77.969,22.185 77.856,22.056 77.362 C 21.948 76.949,21.679 76.904,21.375 77.249 M169.212 82.833 C 169.212 83.246,169.245 83.415,169.284 83.208 C 169.324 83.002,169.324 82.665,169.284 82.458 C 169.245 82.252,169.212 82.421,169.212 82.833 M169.205 85.833 C 169.205 86.154,169.240 86.285,169.282 86.125 C 169.323 85.965,169.323 85.702,169.282 85.542 C 169.240 85.381,169.205 85.513,169.205 85.833 M146.658 87.958 L 146.083 88.583 146.708 88.009 C 147.290 87.474,147.410 87.333,147.283 87.333 C 147.255 87.333,146.974 87.615,146.658 87.958 M215.375 89.782 C 215.535 89.823,215.798 89.823,215.958 89.782 C 216.119 89.740,215.987 89.705,215.667 89.705 C 215.346 89.705,215.215 89.740,215.375 89.782 M179.324 90.792 L 178.750 91.417 179.375 90.842 C 179.957 90.308,180.077 90.167,179.949 90.167 C 179.922 90.167,179.640 90.448,179.324 90.792 M150.494 91.292 L 149.583 92.250 150.542 91.339 C 151.432 90.493,151.576 90.333,151.453 90.333 C 151.427 90.333,150.995 90.765,150.494 91.292 M103.875 90.672 C 103.463 90.837,103.455 90.855,103.601 91.236 C 103.729 91.569,104.393 91.579,104.665 91.252 C 105.113 90.713,104.639 90.365,103.875 90.672 M282.779 90.625 C 282.623 90.891,283.001 91.500,283.322 91.500 C 283.747 91.500,284.061 90.961,283.792 90.692 C 283.577 90.477,282.893 90.432,282.779 90.625 M118.104 91.354 C 118.046 91.647,118.029 91.917,118.066 91.955 C 118.104 91.993,118.187 91.788,118.250 91.500 C 118.313 91.212,118.330 90.941,118.288 90.899 C 118.245 90.857,118.163 91.061,118.104 91.354 M248.578 91.875 L 247.583 92.917 248.625 91.922 C 249.198 91.375,249.667 90.906,249.667 90.880 C 249.667 90.757,249.502 90.907,248.578 91.875 M7.918 91.164 C 7.795 91.363,7.951 91.667,8.177 91.667 C 8.379 91.667,8.381 91.216,8.178 91.090 C 8.093 91.038,7.976 91.071,7.918 91.164 M133.500 92.417 C 133.811 92.737,134.103 93.000,134.149 93.000 C 134.195 93.000,133.978 92.737,133.667 92.417 C 133.356 92.096,133.064 91.833,133.018 91.833 C 132.972 91.833,133.189 92.096,133.500 92.417 M225.324 92.625 L 224.750 93.250 225.375 92.676 C 225.957 92.141,226.077 92.000,225.949 92.000 C 225.922 92.000,225.640 92.281,225.324 92.625 M235.000 92.917 C 235.311 93.237,235.603 93.500,235.649 93.500 C 235.695 93.500,235.478 93.237,235.167 92.917 C 234.856 92.596,234.564 92.333,234.518 92.333 C 234.472 92.333,234.689 92.596,235.000 92.917 M117.333 94.639 C 117.333 94.782,116.079 94.844,112.625 94.872 L 107.917 94.911 112.572 94.958 C 116.928 95.002,117.818 94.929,117.447 94.558 C 117.385 94.496,117.333 94.532,117.333 94.639 M207.667 94.639 C 207.667 94.782,206.412 94.844,202.958 94.872 L 198.250 94.911 202.906 94.958 C 207.261 95.002,208.152 94.929,207.781 94.558 C 207.718 94.496,207.667 94.532,207.667 94.639 M264.836 94.708 C 264.834 94.979,265.170 95.000,269.583 95.000 C 272.196 95.000,274.333 94.944,274.333 94.875 C 274.333 94.806,272.258 94.771,269.722 94.797 C 266.112 94.834,265.080 94.797,264.974 94.630 C 264.874 94.473,264.838 94.494,264.836 94.708 M239.794 95.285 C 240.001 95.324,240.301 95.323,240.460 95.281 C 240.620 95.239,240.450 95.207,240.083 95.209 C 239.717 95.211,239.586 95.245,239.794 95.285 M241.794 95.285 C 242.001 95.324,242.301 95.323,242.460 95.281 C 242.620 95.239,242.450 95.207,242.083 95.209 C 241.717 95.211,241.586 95.245,241.794 95.285 M255.875 95.282 C 256.035 95.323,256.298 95.323,256.458 95.282 C 256.619 95.240,256.487 95.205,256.167 95.205 C 255.846 95.205,255.715 95.240,255.875 95.282 M257.708 95.282 C 257.869 95.323,258.131 95.323,258.292 95.282 C 258.452 95.240,258.321 95.205,258.000 95.205 C 257.679 95.205,257.548 95.240,257.708 95.282 M90.092 104.486 C 90.040 104.570,90.092 104.676,90.207 104.723 C 90.374 104.790,90.374 104.810,90.208 104.820 C 89.956 104.836,89.926 105.333,90.178 105.333 C 90.559 105.333,91.000 104.972,91.000 104.661 C 91.000 104.316,90.282 104.178,90.092 104.486 M9.887 110.000 C 9.887 110.596,9.917 110.840,9.954 110.542 C 9.991 110.244,9.991 109.756,9.954 109.458 C 9.917 109.160,9.887 109.404,9.887 110.000 M388.720 110.000 C 388.720 110.596,388.750 110.840,388.787 110.542 C 388.824 110.244,388.824 109.756,388.787 109.458 C 388.750 109.160,388.720 109.404,388.720 110.000 M67.667 118.750 L 67.667 119.834 198.292 119.792 L 328.917 119.750 328.917 118.750 L 328.917 117.750 198.292 117.708 L 67.667 117.666 67.667 118.750 M328.833 118.750 L 328.833 119.667 198.333 119.667 L 67.833 119.667 67.833 118.750 L 67.833 117.833 198.333 117.833 L 328.833 117.833 328.833 118.750 " stroke="none" fill="#e1cd9b" fill-rule="evenodd"></path></g></svg>